# Voxel Frontier ULTRA low-poly rock: 12 control vertices / 20 triangles
s off
v -0.20000000 -0.84000000 0.02000000
v -0.10000000 -0.60000000 1.05000000
v -1.15000000 -0.62000000 0.05000000
v -0.82000000 0.68000000 0.06000000
v 0.12000000 0.58000000 1.20000000
v 0.45000000 0.78000000 0.07000000
v -0.82000000 0.68000000 0.06000000
v -0.20000000 -0.84000000 0.02000000
v -1.15000000 -0.62000000 0.05000000
v -0.82000000 0.68000000 0.06000000
v 0.45000000 0.78000000 0.07000000
v -0.20000000 -0.84000000 0.02000000
v -0.78000000 -0.35000000 0.72000000
v -1.15000000 -0.62000000 0.05000000
v -0.10000000 -0.60000000 1.05000000
v 0.62000000 -0.28000000 1.12000000
v 0.12000000 0.58000000 1.20000000
v -0.10000000 -0.60000000 1.05000000
v 0.92000000 -0.62000000 0.08000000
v 0.45000000 0.78000000 0.07000000
v 1.12000000 0.18000000 0.12000000
v 0.92000000 -0.62000000 0.08000000
v -0.20000000 -0.84000000 0.02000000
v 0.45000000 0.78000000 0.07000000
v 0.92000000 -0.62000000 0.08000000
v 1.12000000 0.18000000 0.12000000
v 0.62000000 -0.28000000 1.12000000
v 0.92000000 -0.62000000 0.08000000
v -0.10000000 -0.60000000 1.05000000
v -0.20000000 -0.84000000 0.02000000
v 0.92000000 -0.62000000 0.08000000
v 0.62000000 -0.28000000 1.12000000
v -0.10000000 -0.60000000 1.05000000
v -0.58000000 0.44000000 0.96000000
v 0.12000000 0.58000000 1.20000000
v -0.82000000 0.68000000 0.06000000
v -0.58000000 0.44000000 0.96000000
v -0.10000000 -0.60000000 1.05000000
v 0.12000000 0.58000000 1.20000000
v -0.58000000 0.44000000 0.96000000
v -0.78000000 -0.35000000 0.72000000
v -0.10000000 -0.60000000 1.05000000
v -0.58000000 0.44000000 0.96000000
v -0.82000000 0.68000000 0.06000000
v -1.15000000 -0.62000000 0.05000000
v -0.58000000 0.44000000 0.96000000
v -1.15000000 -0.62000000 0.05000000
v -0.78000000 -0.35000000 0.72000000
v 0.72000000 0.34000000 0.82000000
v 0.62000000 -0.28000000 1.12000000
v 1.12000000 0.18000000 0.12000000
v 0.72000000 0.34000000 0.82000000
v 0.12000000 0.58000000 1.20000000
v 0.62000000 -0.28000000 1.12000000
v 0.72000000 0.34000000 0.82000000
v 1.12000000 0.18000000 0.12000000
v 0.45000000 0.78000000 0.07000000
v 0.72000000 0.34000000 0.82000000
v 0.45000000 0.78000000 0.07000000
v 0.12000000 0.58000000 1.20000000
vn -0.21170875 -0.94709270 0.24123604
vn -0.21170875 -0.94709270 0.24123604
vn -0.21170875 -0.94709270 0.24123604
vn -0.07877709 0.98533017 0.15138902
vn -0.07877709 0.98533017 0.15138902
vn -0.07877709 0.98533017 0.15138902
vn -0.02812893 0.01482884 -0.99949431
vn -0.02812893 0.01482884 -0.99949431
vn -0.02812893 0.01482884 -0.99949431
vn 0.00561897 0.02859656 -0.99957524
vn 0.00561897 0.02859656 -0.99957524
vn 0.00561897 0.02859656 -0.99957524
vn -0.50984905 -0.66264481 0.54859440
vn -0.50984905 -0.66264481 0.54859440
vn -0.50984905 -0.66264481 0.54859440
vn -0.04405144 -0.11789488 0.99204852
vn -0.04405144 -0.11789488 0.99204852
vn -0.04405144 -0.11789488 0.99204852
vn 0.09706844 0.02548046 -0.99495149
vn 0.09706844 0.02548046 -0.99495149
vn 0.09706844 0.02548046 -0.99495149
vn 0.05150242 0.01015709 -0.99862122
vn 0.05150242 0.01015709 -0.99862122
vn 0.05150242 0.01015709 -0.99862122
vn 0.90763029 -0.24398664 0.34158129
vn 0.90763029 -0.24398664 0.34158129
vn 0.90763029 -0.24398664 0.34158129
vn 0.17789117 -0.96205424 0.20689699
vn 0.17789117 -0.96205424 0.20689699
vn 0.17789117 -0.96205424 0.20689699
vn 0.34456540 -0.85840275 0.38002553
vn 0.34456540 -0.85840275 0.38002553
vn 0.34456540 -0.85840275 0.38002553
vn -0.28957648 0.90279725 0.31796633
vn -0.28957648 0.90279725 0.31796633
vn -0.28957648 0.90279725 0.31796633
vn -0.31253805 -0.06222153 0.94786521
vn -0.31253805 -0.06222153 0.94786521
vn -0.31253805 -0.06222153 0.94786521
vn -0.47434384 -0.14376745 0.86852106
vn -0.47434384 -0.14376745 0.86852106
vn -0.47434384 -0.14376745 0.86852106
vn -0.92273540 0.23186442 0.30789329
vn -0.92273540 0.23186442 0.30789329
vn -0.92273540 0.23186442 0.30789329
vn -0.88642749 0.08625731 0.45475925
vn -0.88642749 0.08625731 0.45475925
vn -0.88642749 0.08625731 0.45475925
vn 0.87345217 0.09060707 0.47840534
vn 0.87345217 0.09060707 0.47840534
vn 0.87345217 0.09060707 0.47840534
vn 0.59023266 0.27247412 0.75985739
vn 0.59023266 0.27247412 0.75985739
vn 0.59023266 0.27247412 0.75985739
vn 0.64527766 0.73724480 0.20021699
vn 0.64527766 0.73724480 0.20021699
vn 0.64527766 0.73724480 0.20021699
vn 0.50883321 0.80985378 0.29193426
vn 0.50883321 0.80985378 0.29193426
vn 0.50883321 0.80985378 0.29193426
f 1//1 2//2 3//3
f 4//4 5//5 6//6
f 7//7 8//8 9//9
f 10//10 11//11 12//12
f 13//13 14//14 15//15
f 16//16 17//17 18//18
f 19//19 20//20 21//21
f 22//22 23//23 24//24
f 25//25 26//26 27//27
f 28//28 29//29 30//30
f 31//31 32//32 33//33
f 34//34 35//35 36//36
f 37//37 38//38 39//39
f 40//40 41//41 42//42
f 43//43 44//44 45//45
f 46//46 47//47 48//48
f 49//49 50//50 51//51
f 52//52 53//53 54//54
f 55//55 56//56 57//57
f 58//58 59//59 60//60
